<?xml version="1.0" encoding="UTF-8" standalone="no"?>
<!-- The icon can be used freely in both personal and commercial projects with no attribution required, but always appreciated. 
You may NOT sub-license, resell, rent, redistribute or otherwise transfer the icon without express written permission from iconmonstr.com -->

<svg
   xmlns:dc="http://purl.org/dc/elements/1.1/"
   xmlns:cc="http://creativecommons.org/ns#"
   xmlns:rdf="http://www.w3.org/1999/02/22-rdf-syntax-ns#"
   xmlns:svg="http://www.w3.org/2000/svg"
   xmlns="http://www.w3.org/2000/svg"
   xmlns:sodipodi="http://sodipodi.sourceforge.net/DTD/sodipodi-0.dtd"
   xmlns:inkscape="http://www.inkscape.org/namespaces/inkscape"
   version="1.1"
   x="0px"
   y="0px"
   width="512px"
   height="512px"
   viewBox="0 0 512 512"
   enable-background="new 0 0 512 512"
   xml:space="preserve"
   id="svg4944"
   inkscape:version="0.48.4 r9939"
   sodipodi:docname="coin.svg"><metadata
     id="metadata4951"><rdf:RDF><cc:Work
         rdf:about=""><dc:format>image/svg+xml</dc:format><dc:type
           rdf:resource="http://purl.org/dc/dcmitype/StillImage" /></cc:Work></rdf:RDF></metadata><defs
     id="defs4949" /><sodipodi:namedview
     pagecolor="#ffffff"
     bordercolor="#666666"
     borderopacity="1"
     objecttolerance="10"
     gridtolerance="10"
     guidetolerance="10"
     inkscape:pageopacity="0"
     inkscape:pageshadow="2"
     inkscape:window-width="790"
     inkscape:window-height="480"
     id="namedview4947"
     showgrid="false"
     inkscape:zoom="0.4609375"
     inkscape:cx="256"
     inkscape:cy="256"
     inkscape:window-x="0"
     inkscape:window-y="27"
     inkscape:window-maximized="0"
     inkscape:current-layer="svg4944" /><path
     id="coin-10-icon"
     d="M386.638,262.269c-41.621,0-75.362,33.74-75.362,75.363c0,41.621,33.741,75.361,75.362,75.361  c41.623,0,75.362-33.74,75.362-75.361C462,296.009,428.261,262.269,386.638,262.269z M393.548,372.937v8.787h-12.572v-7.857  c-6.035-0.518-14.003-2.705-19.871-5.939l4.158-14.488c5.444,2.125,12.938,4.697,19.411,4.697c1.431,0,2.81-0.125,4.107-0.408  c6.272-1.369,7.854-7.002,0.474-10.186c-6.238-2.799-27.7-5.727-27.7-23.676c0-7.436,5.573-17.654,19.421-20.68v-8.916h12.572v8.184  c5.385,0.369,10.881,1.365,17.229,3.35c-0.636,2.771-3.379,14.805-3.379,14.805c-4.086-1.391-10.587-3.75-17.022-3.75  c-0.468,0-0.935,0.014-1.401,0.039c-8.496,0.477-9.104,6.682-3.377,9.549c11.751,5.312,28.771,9.832,28.771,25.68  C414.384,364.374,404.842,371.347,393.548,372.937z M220.538,293.794v-14.875c4.604,4.549,10.52,8.592,17.644,12.053  c14.814,7.193,33.925,11.393,54.269,11.99c-3.237,8.768-5.278,18.107-5.937,27.82C249.216,328.194,220.538,312.622,220.538,293.794z   M220.538,254.419v-14.873c4.604,4.545,10.52,8.59,17.644,12.049c16.034,7.787,37.097,12.074,59.312,12.074  c7.935,0,15.718-0.557,23.182-1.613c-9.521,8.318-17.46,18.402-23.304,29.734C254.927,291.759,220.538,275.04,220.538,254.419z   M220.538,175.714v-14.875c4.604,4.547,10.52,8.592,17.644,12.053c16.034,7.785,37.097,12.072,59.312,12.072  c22.219,0,43.284-4.287,59.312-12.072c7.124-3.461,13.042-7.506,17.646-12.053v14.875c0,20.641-34.455,37.373-76.958,37.373  C254.993,213.087,220.538,196.354,220.538,175.714z M297.494,173.757c42.503,0,76.958-16.732,76.958-37.371  c0-20.645-34.455-37.379-76.958-37.379c-42.501,0-76.956,16.734-76.956,37.379C220.538,157.024,254.993,173.757,297.494,173.757z   M299.423,141.028c-4.839-1.604-21.494-3.301-21.494-13.523c0.002-4.236,4.332-10.051,15.073-11.752l0.002-5.082l9.756,0.018  l-0.001,4.66c4.182,0.223,8.446,0.791,13.369,1.932c-0.492,1.58-2.621,8.428-2.621,8.428c-3.172-0.797-8.211-2.148-13.203-2.158  c-0.363,0-0.728,0.008-1.095,0.021c-6.592,0.262-7.065,3.795-2.622,5.434c9.118,3.043,22.324,5.637,22.32,14.664  c0.013,6.979-7.389,10.941-16.154,11.83l-0.003,5.004l-9.757-0.018v-4.477c-4.678-0.301-10.862-1.557-15.417-3.406l3.229-8.25  c4.226,1.219,10.042,2.693,15.066,2.703c1.106,0,2.178-0.068,3.184-0.227C303.925,146.058,305.15,142.851,299.423,141.028z   M220.538,215.042v-14.873c4.604,4.547,10.52,8.594,17.644,12.053c16.034,7.783,37.097,12.072,59.312,12.072  c22.219,0,43.284-4.289,59.312-12.072c7.124-3.459,13.042-7.506,17.646-12.053v14.873c0,20.643-34.455,37.375-76.958,37.375  C254.993,252.417,220.538,235.685,220.538,215.042z M186.269,290.972c7.123-3.461,13.04-7.504,17.646-12.053v14.875  c0,20.641-34.455,37.373-76.958,37.373C84.456,331.167,50,314.435,50,293.794v-14.875c4.604,4.549,10.519,8.592,17.644,12.053  c16.031,7.785,37.097,12.072,59.313,12.072C149.175,303.044,170.239,298.757,186.269,290.972z M126.957,217.089  C84.456,217.089,50,233.821,50,254.466c0,20.639,34.456,37.371,76.957,37.371c42.503,0,76.958-16.732,76.958-37.371  C203.915,233.821,169.46,217.089,126.957,217.089z M132.214,273.577l-0.003,5.006l-9.755-0.018v-4.477  c-4.681-0.301-10.865-1.557-15.42-3.408l3.229-8.246c4.227,1.217,10.042,2.691,15.066,2.701c1.108,0.002,2.177-0.068,3.187-0.229  c4.866-0.771,6.093-3.977,0.365-5.799c-4.838-1.604-21.493-3.301-21.491-13.523c0-4.236,4.327-10.051,15.072-11.752l0.001-5.082  l9.756,0.016v4.662c4.18,0.221,8.445,0.791,13.367,1.93c-0.491,1.582-2.621,8.43-2.621,8.43c-3.171-0.797-8.21-2.146-13.202-2.158  c-0.364,0-0.729,0.008-1.095,0.023c-6.592,0.258-7.067,3.793-2.622,5.432c9.118,3.043,22.324,5.637,22.32,14.664  C148.382,268.728,140.978,272.69,132.214,273.577z M220.538,333.124v-14.875c4.604,4.547,10.52,8.594,17.644,12.053  c13.33,6.473,30.14,10.518,48.194,11.701c0.427,9.895,2.291,19.424,5.393,28.381C251.944,368.96,220.538,352.827,220.538,333.124z   M316.136,408.985c-5.971,0.723-12.211,1.111-18.642,1.111c-42.501,0-76.956-16.732-76.956-37.375v-15.141  c4.604,4.547,10.52,8.592,17.644,12.051c15.79,7.666,36.458,11.934,58.299,12.061C301.478,391.876,308.149,401.095,316.136,408.985z   M186.269,369.632c7.123-3.459,13.04-7.504,17.646-12.051v15.141c0,20.643-34.455,37.375-76.958,37.375  C84.456,410.097,50,393.364,50,372.722v-15.141c4.604,4.547,10.519,8.592,17.644,12.051c16.031,7.785,37.097,12.074,59.313,12.074  C149.175,381.706,170.239,377.417,186.269,369.632z M186.269,330.302c7.123-3.459,13.04-7.506,17.646-12.053v14.875  c0,20.641-34.455,37.373-76.958,37.373C84.456,370.497,50,353.765,50,333.124v-14.875c4.604,4.547,10.519,8.594,17.644,12.053  c16.031,7.785,37.097,12.072,59.313,12.072C149.175,342.374,170.239,338.087,186.269,330.302z"
     style="fill:#2f2f2f;fill-opacity:1" /></svg>